<?xml version="1.0" encoding="UTF-8"?>
<svg id="Layer_2" xmlns="http://www.w3.org/2000/svg" version="1.1" viewBox="0 0 206.7 452">
  <!-- Generator: Adobe Illustrator 30.0.0, SVG Export Plug-In . SVG Version: 2.1.1 Build 123)  -->
  <defs>
    <style>
      .st0 {
        stroke: #606060;
      }

      .st0, .st1 {
        fill: none;
        stroke-linecap: round;
        stroke-linejoin: round;
        stroke-width: 2px;
      }

      .st2 {
        fill: #698eaf;
      }

      .st1 {
        stroke: #698eaf;
      }
    </style>
  </defs>
  <path class="st2" d="M98.2,53s3,0,4,5,0,6-1,5-3-10-3-10Z"/>
  <path class="st2" d="M99.2,77c-1-3-7-25-7-25l-.66.88c-.12,1.49-.41,3.8-1.04,6.63.94,2.54,2.13,5.81,2.7,7.49,1,3,7,13,6,10Z"/>
  <path class="st2" d="M91.2,67s5.02,9.11,6.01,10.55-1.9.55-2.95,0-3.06-4.55-3.06-10.55Z"/>
  <path class="st2" d="M89.2,67s2,8.11,0,10.55-3.37.55-3.69,0,3.69-9.55,3.69-10.55Z"/>
  <path class="st2" d="M75.75,76c2.55,1,6.45,2,8.45,0,1.11-1.11,1.39-4.9,1.41-8.04-4.89,3.48-12.26,5.04-12.26,5.04,0,0-.4.04-1.08.11,1.05,1.21,2.32,2.44,3.48,2.89Z"/>
  <path id="anterior_deltoid_right" class="st2" d="M64.2,86c7-6,16-6,16-6-3.79-.63-8.38-4.06-11.24-6.49-3.59.48-8.46,1.32-10.85,2.49-2.82,1.39-9.06,7.58-12.62,13.25.15,2.28.37,4.69.71,6.75,1,6,5,13,5,13,0,0,2,0,7-7s-1-10,6-16Z"/>
  <path class="st2" d="M46.2,105c-1.77-2.36-2.66-7.14-3.1-10.68-.15.6-.24,1.16-.24,1.68,0,4.71.63,15.58.9,20.04,1.88-1.92,4.72-4.04,5.45-4.04,1,0,0-3-3-7h-.01Z"/>
  <path id="biceps_right_short_head" class="st2" d="M43.88,118c-6.32,8.88-5.42,23.28-5.14,26.39.07.31.1.52.06.61-.41,1,3.41,10,3.41,10,0,0,1-7,1.19-16.6s8.81-26.4,8.81-26.4c-5,2-8.33,6-8.33,6Z"/>
  <path id="biceps_right_long_head" class="st2" d="M60.2,103s3,21-4,34-11,18-11,18c0,0-2-13,3-28s12-24,12-24Z"/>
  <path id="biceps_right_brachialis" class="st2" d="M60.2,133s-7,13-9,16-3.25,5.1-1.62,8.55,3.25,8.61,3.25,8.61c0,0,2.01-3.18,1.69-6.17s-.69-4.46,0-8.23,5.69-13.76,5.69-18.76h0Z"/>
  <path class="st2" d="M31.68,155c-3.05,8-4.07,15-5.08,31-.33,5.24-.78,10.27-1.26,14.7l.86,8.3s12-39,13-47c.64-5.08-1.15-11.37-2.54-15.29-1.43,1.46-3.35,4.01-4.98,8.29Z"/>
  <path class="st2" d="M29.2,213s12-35,15-41,6-13,2-15-12,30-13,34-5,17-4,22Z"/>
  <path class="st2" d="M32.2,213.72s9.21-28.72,12.6-37.72c3.4-9,5.4-12,6.4-8s-6,20.47-9,28.24c-3,7.76-10,17.48-10,17.48Z"/>
  <path id="chest_right" class="st2" d="M95.2,123s5.02,0,6.51-11c1.49-11-2.51-29-5.51-30s-16.22-2.17-26.11,2.41-6.89,15.59-4.89,21.59,7.63,17,15.82,17h14.18Z"/>
  <path class="st2" d="M66.88,123c-.32-5-4.18-17.76-4.18-17.76l.49,21.76s2.98,9.4,4.84,16.49c.06-7.21-.91-16.78-1.15-20.49Z"/>
  <path class="st2" d="M68.03,119.38s-.83,2.62,2.17,5.62,10,0,10,0l-12.17-5.62Z"/>
  <path class="st2" d="M69.32,127.95s-.28,5.05,1.8,5.05,7.45-5.05,7.45-5.05h-9.25Z"/>
  <path class="st2" d="M71.2,135s9.37-6.05,9.69-4.52.69,8.99,0,9.26-9.69-4.73-9.69-4.73h0Z"/>
  <path class="st2" d="M70.22,139.73s.98,7.27,4.98,8.27,6.15,2.16,6.07-2.92-10.04-6.62-11.06-5.35h0Z"/>
  <path class="st2" d="M71.2,148.87s-2,3.13.56,6.13c2.96,3.47,9.44,8,9.44,7s-.06-5.78-1-8.31c-1-2.69-9-4.82-9-4.82Z"/>
  <path class="st2" d="M70.03,157.93c.05,2.11.01,4.19-.1,6.05h0c.73,1.98,8.27,9.02,9.27,9.02s2-5,1-6.74-10.17-8.33-10.17-8.33h0Z"/>
  <path id="obliques_right" class="st2" d="M69.29,169c-1.02,4,0,8,0,12,0,2.47-.78,6.47-1.37,9.16,3.62,4.51,9.98,11.8,11.69,11.71,2.4-.13,3.6-13.87,1.01-20.42-1.86-4.7-7.96-10.1-11.26-12.78-.02.11-.05.22-.07.32h0Z"/>
  <path class="st2" d="M68.2,210c1.27-5.1-.23-10.9-1.49-14.44-.67,3.31-1.82,9.37-2.51,15.44-.95,8.45-2.8,14.25-3.87,22.79,2.96-6.73,6.44-18.07,7.87-23.79Z"/>
  <path class="st2" d="M74.2,203s2,11,3,11,2.02-1,2.02-1c0,0-1.02,9,.98,10s3.94-4.66,3.94-4.66c0,0-2.94,10.66-.94,13.66s7-6,6-9-4.2-7.33-4.2-7.33c0,0-1.67-4.72-3.23-6.2s-5.57-7.48-7.57-6.48h0Z"/>
  <path class="st2" d="M70.2,200l6,30c1,5,8,31,11,36s6.35,28.31,6.35,28.31c0,0,1.35-11.97,0-18.64s-1.09-18.23-4.22-25.45c-3.13-7.22-19.13-50.22-19.13-50.22h0Z"/>
  <path id="adductors_right" class="st2" d="M95.2,236s3,13,2,22-3,22.9-2,27.95c0,0,5-21.95,6-29.95s0-19-6-20Z"/>
  <path id="quadriceps_right_rectus_femoris" class="st2" d="M69.58,213.72s-5.48,19.59-6.43,33.44,2.8,34.66,6.43,41.75,6.62,15.09,9.62,4.09,3.96-27.28,2.98-33.14-5.98-17.92-7.98-27.89-4.62-18.25-4.62-18.25h0Z"/>
  <path id="quadriceps_right_vastus_medialis" class="st2" d="M85.2,268s-1.31,19.16-2.65,22.58-3.39,16.96-.37,20.69,10.02-6.27,10.02-11.27-7-31-7-32Z"/>
  <path id="quadriceps_right_vastus_lateralis" class="st2" d="M70.2,295.33c-2-6.33-8-18.33-8-23.33,0-2.58-1.06-8.6-2.09-13.84,0,.62.03,1.24.03,1.84,0,7,0,18,.8,25.33s8.35,16.67,6.32,21.67h0c.96,1.71,2.34,3.16,2.95,2.34,1-1.34,2-7.68,0-14.01h0Z"/>
  <path class="st2" d="M90.2,311s-1,5-3,8-.79,10.39-.79,10.39c0,0,4.79-3.39,4.79-5.39s-1-13-1-13Z"/>
  <path class="st2" d="M85.2,341s-7,13-6,21,6,16,8,15,4-8,3-15-5-21-5-21Z"/>
  <path class="st2" d="M81.2,376l1,27,5-23s-6-2-6-4Z"/>
  <path id="tibialis_right" class="st2" d="M68.2,323s2,33,4,37,6.9,45.87,6.9,45.87c0,0-10.9-32.87-12.9-44.87s0-36,2-38Z"/>
  <path class="st2" d="M63.2,345s3,30,5,34,9,33,9,33c0,0-5-19-8-25s-7-34-6-42Z"/>
  <path class="st2" d="M110.2,53s-3,0-4,5,0,6,1,5,3-10,3-10Z"/>
  <path class="st2" d="M109.2,77c1-3,7-25,7-25l.66.88c.12,1.49.41,3.8,1.04,6.63-.94,2.54-2.13,5.81-2.7,7.49-1,3-7,13-6,10Z"/>
  <path class="st2" d="M117.2,67s-5.02,9.11-6.01,10.55,1.9.55,2.95,0,3.06-4.55,3.06-10.55Z"/>
  <path class="st2" d="M119.2,67s-2,8.11,0,10.55,3.37.55,3.69,0-3.69-9.55-3.69-10.55Z"/>
  <path class="st2" d="M132.66,76c-2.55,1-6.45,2-8.45,0-1.11-1.11-1.39-4.9-1.41-8.04,4.89,3.48,12.26,5.04,12.26,5.04,0,0,.4.04,1.08.11-1.05,1.21-2.32,2.44-3.48,2.89Z"/>
  <path id="anterior_deltoid_left" class="st2" d="M144.2,86c-7-6-16-6-16-6,3.79-.63,8.38-4.06,11.24-6.49,3.59.48,8.46,1.32,10.85,2.49,2.82,1.39,9.06,7.58,12.62,13.25-.15,2.28-.37,4.69-.71,6.75-1,6-5,13-5,13,0,0-2,0-7-7s1-10-6-16Z"/>
  <path class="st2" d="M162.2,105c1.77-2.36,2.66-7.14,3.1-10.68.15.6.24,1.16.24,1.68,0,4.71-.63,15.58-.9,20.04-1.88-1.92-4.72-4.04-5.45-4.04-1,0,0-3,3-7h0Z"/>
  <path id="biceps_left_short_head" class="st2" d="M164.53,118c6.32,8.88,5.42,23.28,5.14,26.39-.07.31-.1.52-.06.61.41,1-3.41,10-3.41,10,0,0-1-7-1.19-16.6s-8.81-26.4-8.81-26.4c5,2,8.33,6,8.33,6Z"/>
  <path id="biceps_left_long_head" class="st2" d="M148.2,103s-3,21,4,34,11,18,11,18c0,0,2-13-3-28s-12-24-12-24Z"/>
  <path id="biceps_left_brachialis" class="st2" d="M148.2,133s7,13,9,16,3.25,5.1,1.62,8.55-3.25,8.61-3.25,8.61c0,0-2.01-3.18-1.69-6.17s.69-4.46,0-8.23-5.69-13.76-5.69-18.76h.01Z"/>
  <path class="st2" d="M176.73,155c3.05,8,4.07,15,5.08,31,.33,5.24.78,10.27,1.26,14.7l-.86,8.3s-12-39-13-47c-.64-5.08,1.15-11.37,2.54-15.29,1.43,1.46,3.35,4.01,4.98,8.29h0Z"/>
  <path class="st2" d="M179.2,213s-12-35-15-41-6-13-2-15,12,30,13,34,5,17,4,22Z"/>
  <path class="st2" d="M176.2,213.72s-9.21-28.72-12.6-37.72-5.4-12-6.4-8,6,20.47,9,28.24c3,7.76,10,17.48,10,17.48Z"/>
  <path id="chest_left" class="st2" d="M113.2,123s-5.02,0-6.51-11,2.51-29,5.51-30,16.22-2.17,26.11,2.41,6.89,15.59,4.89,21.59-7.63,17-15.82,17h-14.18Z"/>
  <g id="abs_rectus">
    <path class="st2" d="M84.2,147s7-6,11-8,5.77-.93,6.83-3.82c1.17-3.18-.83-9.18-1.83-10.18s-12,0-14,2c-2,2-4,7-2,20Z"/>
    <path class="st2" d="M102.39,139.94c.65.85.36,14.2-.19,16.06-.41,1.38-5.46,1.34-9.32,2.19s-8.68,2.81-8.68.81c0-3-1-9,5-13s12.37-7.12,13.19-6.06Z"/>
    <path class="st2" d="M84.14,171.69s.69,4.31,5.88,4.31,12.31.32,12.75-5.34.44-11.66-2.56-11.66-15.12,3.01-16.06,6,0,6.68,0,6.68h-.01Z"/>
    <path class="st2" d="M84.14,179.27s11.06-2.27,14.06-1.27,4.77,5.13,4.77,5.13l-.21,42.87s-13.56-14-15.56-27-3.06-19.73-3.06-19.73Z"/>
    <path class="st2" d="M124.2,147s-7-6-11-8-5.77-.93-6.83-3.82c-1.17-3.18.83-9.18,1.83-10.18s12,0,14,2c2,2,4,7,2,20Z"/>
    <path class="st2" d="M106.02,139.94c-.65.85-.36,14.2.19,16.06.41,1.38,5.46,1.34,9.32,2.19s8.68,2.81,8.68.81c0-3,1-9-5-13s-12.37-7.12-13.19-6.06Z"/>
    <path class="st2" d="M124.27,171.69s-.69,4.31-5.88,4.31-12.31.32-12.75-5.34-.44-11.66,2.56-11.66,15.12,3.01,16.06,6,0,6.68,0,6.68h.01Z"/>
    <path class="st2" d="M124.27,179.27s-11.06-2.27-14.06-1.27-4.77,5.13-4.77,5.13l.21,42.87s13.56-14,15.56-27,3.06-19.73,3.06-19.73Z"/>
  </g>
  <path class="st2" d="M141.53,123c.32-5,4.18-17.76,4.18-17.76l-.49,21.76s-2.98,9.4-4.84,16.49c-.06-7.21.91-16.78,1.15-20.49h0Z"/>
  <path class="st2" d="M140.38,119.38s.83,2.62-2.17,5.62-10,0-10,0l12.17-5.62Z"/>
  <path class="st2" d="M139.08,127.95s.28,5.05-1.8,5.05-7.45-5.05-7.45-5.05h9.25Z"/>
  <path class="st2" d="M137.2,135s-9.37-6.05-9.69-4.52-.69,8.99,0,9.26,9.69-4.73,9.69-4.73h0Z"/>
  <path class="st2" d="M138.19,139.73s-.98,7.27-4.98,8.27-6.15,2.16-6.07-2.92,10.04-6.62,11.06-5.35h-.01Z"/>
  <path class="st2" d="M137.2,148.87s2,3.13-.56,6.13c-2.96,3.47-9.44,8-9.44,7s.06-5.78,1-8.31c1-2.69,9-4.82,9-4.82Z"/>
  <path class="st2" d="M138.38,157.93c-.05,2.11,0,4.19.1,6.05h0c-.73,1.98-8.27,9.02-9.27,9.02s-2-5-1-6.74,10.17-8.33,10.17-8.33h0Z"/>
  <path id="obliques_left" class="st2" d="M139.12,169c1.02,4,0,8,0,12,0,2.47.78,6.47,1.37,9.16-3.62,4.51-9.98,11.8-11.69,11.71-2.4-.13-3.6-13.87-1.01-20.42,1.86-4.7,7.96-10.1,11.26-12.78.02.11.05.22.07.32h0Z"/>
  <path class="st2" d="M140.2,210c-1.27-5.1.23-10.9,1.49-14.44.67,3.31,1.82,9.37,2.51,15.44.95,8.45,2.8,14.25,3.87,22.79-2.96-6.73-6.44-18.07-7.87-23.79Z"/>
  <path class="st2" d="M134.2,203s-2,11-3,11-2.02-1-2.02-1c0,0,1.02,9-.98,10s-3.94-4.66-3.94-4.66c0,0,2.94,10.66.94,13.66s-7-6-6-9,4.2-7.33,4.2-7.33c0,0,1.67-4.72,3.23-6.2s5.57-7.48,7.57-6.48h0Z"/>
  <path class="st2" d="M138.2,200l-6,30c-1,5-8,31-11,36s-6.35,28.31-6.35,28.31c0,0-1.35-11.97,0-18.64s1.09-18.23,4.22-25.45,19.13-50.22,19.13-50.22h0Z"/>
  <path id="adductors_left" class="st2" d="M113.2,236s-3,13-2,22,3,22.9,2,27.95c0,0-5-21.95-6-29.95s0-19,6-20Z"/>
  <path id="quadriceps_left_rectus_femoris" class="st2" d="M138.83,213.72s5.48,19.59,6.43,33.44-2.8,34.66-6.43,41.75c-3.62,7.09-6.62,15.09-9.62,4.09s-3.96-27.28-2.98-33.14c.98-5.86,5.98-17.92,7.98-27.89s4.62-18.25,4.62-18.25h0Z"/>
  <path id="quadriceps_left_vastus_medialis" class="st2" d="M123.2,268s1.31,19.16,2.65,22.58,3.39,16.96.37,20.69c-3.02,3.73-10.02-6.27-10.02-11.27s7-31,7-32Z"/>
  <path id="quadriceps_left_vastus_lateralis" class="st2" d="M138.2,295.33c2-6.33,8-18.33,8-23.33,0-2.58,1.06-8.6,2.09-13.84,0,.62-.03,1.24-.03,1.84,0,7,0,18-.8,25.33s-8.35,16.67-6.32,21.67h0c-.96,1.71-2.34,3.16-2.95,2.34-1-1.34-2-7.68,0-14.01h.01Z"/>
  <path class="st2" d="M118.2,311s1,5,3,8,.79,10.39.79,10.39c0,0-4.79-3.39-4.79-5.39s1-13,1-13Z"/>
  <path class="st2" d="M123.2,341s7,13,6,21-6,16-8,15-4-8-3-15,5-21,5-21Z"/>
  <path class="st2" d="M127.2,376l-1,27-5-23s6-2,6-4Z"/>
  <path id="tibialis_left" class="st2" d="M140.2,323s-2,33-4,37-6.9,45.87-6.9,45.87c0,0,10.9-32.87,12.9-44.87s0-36-2-38Z"/>
  <path class="st2" d="M145.2,345s-3,30-5,34-9,33-9,33c0,0,5-19,8-25s7-34,6-42Z"/>
  <path class="st0" d="M203.45,237c-1.02-1-8.13-8-9.15-13s-7.11-6-8.13-7-3.05-15-4.07-31-2.03-23-5.08-31-7.11-10-7.11-10c0,0,2.03-17-5.08-27,0,0,1.02-16,1.02-22s-11.18-18-15.25-20-15.25-3-15.25-3c0,0-14.23-3-16.26-10s-2.03-12-2.03-12c0,0,3.05-7,3.05-10,0,0,4.07-1,4.07-4s4.07-7.41,2.03-9.7-5.08-.3-5.08-.3c0,0,4.9-25.17-16.26-25.96v-.04c-.18,0-.34.02-.51.02s-.33-.02-.51-.02v.04c-21.17.79-16.26,25.96-16.26,25.96,0,0-3.05-2-5.08.3s2.03,6.7,2.03,9.7,4.07,4,4.07,4c0,3,3.05,10,3.05,10,0,0,0,5-2.03,12s-16.26,10-16.26,10c0,0-11.18,1-15.25,3s-15.25,14-15.25,20,1.02,22,1.02,22c-7.11,10-5.08,27-5.08,27,0,0-4.07,2-7.11,10-3.05,8-4.07,15-5.08,31s-3.05,30-4.07,31-7.11,2-8.13,7-8.13,12-9.15,13-4.07,3-3.05,5,6.1,1,7.11-1,4.07-4,4.07-4c0,0-1.02,17-1.02,20s4.07,6,4.07,6c0,0-1.02,5,2.03,5s4.07-3,4.07-3c5.08,2,5.08-6,5.08-6,0,0,3.05,1,4.07,0s4.07-11,4.97-16.18,3.16-8.82,3.16-12.82-2.03-7-3.05-9,5.08-16,8.13-25,12.2-34,11.18-39,1.02-9,2.03-11,5.08-19,5.08-19c0,0,5.08,16,6.1,22s1.02,16,0,20,0,8,0,12-2.03,12-2.03,12c0,0-2.03,9-3.05,18s-3.05,15-4.07,24.5,0,17.5,0,24.5,0,18,.8,25.33,8.35,16.67,6.32,21.67-2.03,13-2.03,21-4.07,14-3.05,28,7.11,43,8.13,51c1.02,8-2.03,15-2.03,18s2.03,6,1.02,9c-1.02,3-8.13,11-8.28,11.66-.15.66,0,5.34,0,5.34h26.58c0-2-1.02-6-1.02-8v-8c0-2,3.05-8,2.03-11s-4.07-8-4.07-17,5.08-25,7.11-35-1.02-27-2.54-30.83c-1.52-3.83,3.56-12.17,3.56-16.17s1.02-12,1.02-18,2.03-8,3.05-16,6.1-30,6.1-30c2.03-12-.75-21-.75-21h4.55s-2.78,9-.75,21c0,0,5.08,22,6.1,30s3.05,10,3.05,16,1.02,14,1.02,18,5.08,12.34,3.56,16.17c-1.52,3.83-4.57,20.83-2.54,30.83s7.11,26,7.11,35-3.05,14-4.07,17,2.03,9,2.03,11v8c0,2-1.02,6-1.02,8h26.58s.15-4.68,0-5.34-7.27-8.66-8.28-11.66c-1.02-3,1.02-6,1.02-9s-3.05-10-2.03-18,7.11-37,8.13-51-3.05-20-3.05-28,0-16-2.03-21,5.52-14.35,6.32-21.67c.8-7.33.8-18.33.8-25.33s1.02-15,0-24.5-3.05-15.5-4.07-24.5-3.05-18-3.05-18c0,0-2.03-8-2.03-12s1.02-8,0-12-1.02-14,0-20,6.1-22,6.1-22c0,0,4.07,17,5.08,19s3.05,6,2.03,11,8.13,30,11.18,39c3.05,9,9.15,23,8.13,25s-3.05,5-3.05,9,2.26,7.64,3.16,12.82c.9,5.18,3.95,15.18,4.97,16.18s4.07,0,4.07,0c0,0,0,8,5.08,6,0,0,1.02,3,4.07,3s2.03-5,2.03-5c0,0,4.07-3,4.07-6s-1.02-20-1.02-20c0,0,3.05,2,4.07,4s6.1,3,7.11,1-2.03-4-3.05-5h-.03Z"/>
  <line class="st1" x1="17.2" y1="245" x2="16.43" y2="263"/>
  <line class="st1" x1="25.34" y1="245" x2="22.53" y2="265"/>
  <line class="st1" x1="29.04" y1="247.15" x2="27.61" y2="259"/>
  <line class="st1" x1="191.2" y1="245" x2="191.97" y2="263"/>
  <line class="st1" x1="183.06" y1="245" x2="185.87" y2="265"/>
  <line class="st1" x1="179.36" y1="247.15" x2="180.79" y2="259"/>
</svg>