<?xml version="1.0" encoding="UTF-8" standalone="no"?>
<!-- Created with Inkscape (http://www.inkscape.org/) -->

<svg
   width="210mm"
   height="297mm"
   viewBox="0 0 210 297"
   version="1.1"
   id="svg1"
   xml:space="preserve"
   xmlns="http://www.w3.org/2000/svg"
   xmlns:svg="http://www.w3.org/2000/svg"><defs
     id="defs1"><style
       id="style1">
      .st0 {
        fill: #67b6df;
      }

      .st1 {
        fill: #182f50;
      }

      .st2 {
        fill: #6bb7e1;
      }
    </style></defs><g
     id="layer1"><g
       id="g1"
       transform="matrix(0.26458333,0,0,0.26458333,-36.839008,26.227764)"><g
         id="FitPilot"
         transform="matrix(0.75223806,0,0,0.75223806,-77.981039,197.44081)"><g
           id="FitPilot1"
           data-name="FitPilot"><path
             class="st1"
             d="m 765.35091,456.61446 v 29.97 h 52.49 v 21.06 h -52.49 v 41.31 h -26.24 v -113.4 h 85.7 v 21.06 z"
             id="path1" /><path
             class="st1"
             d="m 836.15091,435.55446 c 0,-7.94 6.32,-14.09 15.71,-14.09 9.39,0 15.71,5.83 15.71,13.61 0,8.42 -6.32,14.58 -15.71,14.58 -9.39,0 -15.71,-6.16 -15.71,-14.09 z m 3.08,26.24 h 25.27 v 87.16 h -25.27 z"
             id="path2" /><path
             class="st1"
             d="m 944.20091,544.74446 c -5.18,3.73 -12.8,5.51 -20.57,5.51 -20.57,0 -32.56,-10.53 -32.56,-31.27 v -35.8 h -13.45 v -19.44 h 13.45 v -21.22 h 25.27 v 21.22 h 21.71 v 19.44 h -21.71 v 35.48 c 0,7.45 4.05,11.5 10.85,11.5 3.73,0 7.45,-1.13 10.21,-3.24 z"
             id="path3" /><path
             class="st1"
             d="m 1058.5709,476.69446 c 0,25.27 -18.95,40.99 -49.25,40.99 h -22.83999 v 31.27 h -26.24 v -113.4 h 49.08999 c 30.29,0 49.25,15.71 49.25,41.15 z m -26.56,0 c 0,-12.47 -8.1,-19.76 -24.14,-19.76 h -21.37999 v 39.37 h 21.37999 c 16.04,0 24.14,-7.29 24.14,-19.6 z"
             id="path4" /><path
             class="st1"
             d="m 1072.3409,435.55446 c 0,-7.94 6.32,-14.09 15.71,-14.09 9.39,0 15.71,5.83 15.71,13.61 0,8.42 -6.32,14.58 -15.71,14.58 -9.39,0 -15.71,-6.16 -15.71,-14.09 z m 3.08,26.24 h 25.27 v 87.16 h -25.27 z"
             id="path5" /><path
             class="st1"
             d="m 1124.1809,428.74446 h 25.27 v 120.21 h -25.27 z"
             id="path6" /><path
             class="st1"
             d="m 1166.4609,505.37446 c 0,-26.24 20.25,-44.88 47.95,-44.88 27.7,0 47.79,18.63 47.79,44.88 0,26.25 -20.09,44.88 -47.79,44.88 -27.7,0 -47.95,-18.63 -47.95,-44.88 z m 70.15,0 c 0,-15.07 -9.56,-24.14 -22.19,-24.14 -12.63,0 -22.36,9.07 -22.36,24.14 0,15.07 9.72,24.14 22.36,24.14 12.64,0 22.19,-9.07 22.19,-24.14 z"
             id="path7" /><path
             class="st1"
             d="m 1335.2709,544.74446 c -5.18,3.73 -12.8,5.51 -20.57,5.51 -20.57,0 -32.56,-10.53 -32.56,-31.27 v -35.8 h -13.45 v -19.44 h 13.45 v -21.22 h 25.27 v 21.22 h 21.71 v 19.44 h -21.71 v 35.48 c 0,7.45 4.05,11.5 10.85,11.5 3.73,0 7.45,-1.13 10.21,-3.24 z"
             id="path8" /></g></g><g
         id="g2"
         transform="matrix(0.75223806,0,0,0.75223806,170.18493,323.04798)"><g
           id="Circulo"
           transform="translate(-340.31534,-76.718489)"><circle
             id="Circulo1"
             data-name="Circulo"
             class="st2"
             cx="551.22998"
             cy="326.53"
             r="22.67" /></g><g
           id="Alas"
           transform="translate(-340.31534,-76.718489)"><path
             id="Alas1"
             data-name="Alas"
             class="st1"
             d="m 353.3,317.15 129,64.2 c 9.22,5.82 12.63,17.52 13.5,31.8 -4.04,-11.79 -12.3,-17.7 -32.1,-26.85 L 343.85,329.15 c 5.7,26.55 19.69,45.45 43.35,62.1 7.35,6.9 53.65,24.87 88.05,37.95 10,4.86 15.73,14.37 16.95,28.8 -2.25,-5.7 -13.96,-12.47 -29.25,-17.55 -33.97,-11.98 -59.92,-22.98 -73.35,-30.15 8.47,30.77 30.46,50.93 66.15,60.3 33.95,7.85 45.4,27.78 42.88,55.2 l 45.52,-99 c 9.9,-35.5 1.19,-61.96 -29.76,-77.6 L 308.59,246.8 c 4.37,30.32 15.2,51.28 44.7,70.35 z" /></g><g
           id="Letra_P"
           transform="translate(-340.31534,-76.718489)"><path
             id="Letra_P1"
             data-name="Letra_P"
             class="st0"
             d="m 710.3,413.9 c -0.22,-30.36 -18.45,-49.05 -49.5,-51.6 H 550.85 c 10.88,15.67 13.5,34.65 9.9,58.2 9.19,-5.08 27.6,-5.61 50.76,-4.4 l 7.44,-27.74 c 0.79,-3.18 3.16,-4.79 6.91,-5.06 h 6.83 c 6.15,1.28 6.83,6 5.92,10.05 l -16.71,64.26 c -1.82,6.84 -4.28,9.6 -9.69,10.74 h -4.5 c -2.73,-0.62 -5.14,-1.49 -6.38,-3.43 -1.17,-1.83 -1.27,-4.64 -0.78,-7.92 l 6.16,-23 H 574.7 c -8.1,0.9 -13.57,4.43 -18.6,8.55 -6.18,5.49 -10.99,12.4 -14.2,20.95 l -37.1,80.9 h 48.6 l 25.24,-52.93 0.67,-1.37 h 63.19 c 40.05,-3.49 69.5,-40.69 67.8,-76.2 z m -67.35,44.7 h -6.9 c -4,-0.48 -5.61,-3.1 -4.21,-8.4 l 12.86,-48.16 c 0.3,-3.04 2.23,-3.93 4.85,-3.94 h 7.5 c 3.16,1.11 3.89,2.9 3.5,6.37 l -13.26,49.67 c -0.51,2.81 -2.1,4.09 -4.34,4.46 z m 30.64,-35.16 -4.09,17.31 c -0.59,2.67 -1.84,3.71 -3.47,3.79 h -4.33 c -2.58,-0.12 -4.21,-1.46 -3.2,-6.13 l 4.28,-16.37 c 0.61,-3.2 2.12,-4.51 4.32,-4.38 l 2.55,0.1 c 3.57,0.6 4.81,2.54 3.94,5.67 z" /></g></g></g></g></svg>
