<?xml version="1.0" encoding="UTF-8"?>
<svg id="Layer_2" xmlns="http://www.w3.org/2000/svg" version="1.1" viewBox="0 0 206.7 452">
  <!-- Generator: Adobe Illustrator 30.0.0, SVG Export Plug-In . SVG Version: 2.1.1 Build 123)  -->
  <defs>
    <style>
      .st0 {
        stroke: #606060;
      }

      .st0, .st1 {
        fill: none;
        stroke-linecap: round;
        stroke-linejoin: round;
        stroke-width: 2px;
      }

      .st2 {
        fill: #698eaf;
      }

      .st1 {
        stroke: #698eaf;
      }
    </style>
  </defs>
  <path class="st0" d="M202.45,237c-1.02-1-8.13-8-9.15-13s-7.11-6-8.13-7-3.05-15-4.07-31-2.03-23-5.08-31-7.11-10-7.11-10c0,0,2.03-17-5.08-27,0,0,1.02-16,1.02-22s-11.18-18-15.25-20-15.25-3-15.25-3c0,0-14.23-3-16.26-10s-2.03-12-2.03-12c0,0,3.05-7,3.05-10,0,0,4.07-1,4.07-4s4.07-7.41,2.03-9.7-5.08-.3-5.08-.3c0,0,4.9-25.17-16.26-25.96v-.04c-.18,0-.34.02-.51.02s-.33-.02-.51-.02v.04c-21.17.79-16.26,25.96-16.26,25.96,0,0-3.05-2-5.08.3s2.03,6.7,2.03,9.7,4.07,4,4.07,4c0,3,3.05,10,3.05,10,0,0,0,5-2.03,12s-16.26,10-16.26,10c0,0-11.18,1-15.25,3s-15.25,14-15.25,20,1.02,22,1.02,22c-7.11,10-5.08,27-5.08,27,0,0-4.07,2-7.11,10-3.05,8-4.07,15-5.08,31s-3.05,30-4.07,31-7.11,2-8.13,7-8.13,12-9.15,13-4.07,3-3.05,5,6.1,1,7.11-1,4.07-4,4.07-4c0,0-1.02,17-1.02,20s4.07,6,4.07,6c0,0-1.02,5,2.03,5s4.07-3,4.07-3c5.08,2,5.08-6,5.08-6,0,0,3.05,1,4.07,0s4.07-11,4.97-16.18,3.16-8.82,3.16-12.82-2.03-7-3.05-9,5.08-16,8.13-25,12.2-34,11.18-39,1.02-9,2.03-11,5.08-19,5.08-19c0,0,5.08,16,6.1,22s1.02,16,0,20,0,8,0,12-2.03,12-2.03,12c0,0-2.03,9-3.05,18s-3.05,15-4.07,24.5,0,17.5,0,24.5,0,18,.8,25.33,8.35,16.67,6.32,21.67-2.03,13-2.03,21-4.07,14-3.05,28,7.11,43,8.13,51c1.02,8-2.03,15-2.03,18s2.03,6,1.02,9c-1.02,3-8.13,11-8.28,11.66-.15.66,0,5.34,0,5.34h26.58c0-2-1.02-6-1.02-8v-8c0-2,3.05-8,2.03-11s-4.07-8-4.07-17,5.08-25,7.11-35-1.02-27-2.54-30.83c-1.52-3.83,3.56-12.17,3.56-16.17s1.02-12,1.02-18,2.03-8,3.05-16,6.1-30,6.1-30c2.03-12-.75-21-.75-21h4.55s-2.78,9-.75,21c0,0,5.08,22,6.1,30s3.05,10,3.05,16,1.02,14,1.02,18,5.08,12.34,3.56,16.17c-1.52,3.83-4.57,20.83-2.54,30.83s7.11,26,7.11,35-3.05,14-4.07,17,2.03,9,2.03,11v8c0,2-1.02,6-1.02,8h26.58s.15-4.68,0-5.34-7.27-8.66-8.28-11.66c-1.02-3,1.02-6,1.02-9s-3.05-10-2.03-18,7.11-37,8.13-51-3.05-20-3.05-28,0-16-2.03-21,5.52-14.35,6.32-21.67c.8-7.33.8-18.33.8-25.33s1.02-15,0-24.5-3.05-15.5-4.07-24.5-3.05-18-3.05-18c0,0-2.03-8-2.03-12s1.02-8,0-12-1.02-14,0-20,6.1-22,6.1-22c0,0,4.07,17,5.08,19s3.05,6,2.03,11,8.13,30,11.18,39c3.05,9,9.15,23,8.13,25s-3.05,5-3.05,9,2.26,7.64,3.16,12.82c.9,5.18,3.95,15.18,4.97,16.18s4.07,0,4.07,0c0,0,0,8,5.08,6,0,0,1.02,3,4.07,3s2.03-5,2.03-5c0,0,4.07-3,4.07-6s-1.02-20-1.02-20c0,0,3.05,2,4.07,4s6.1,3,7.11,1-2.03-4-3.05-5h-.03Z"/>
  <line class="st1" x1="16.2" y1="245" x2="15.43" y2="263"/>
  <line class="st1" x1="24.34" y1="245" x2="21.53" y2="265"/>
  <line class="st1" x1="28.04" y1="247.15" x2="26.61" y2="259"/>
  <line class="st1" x1="190.2" y1="245" x2="190.97" y2="263"/>
  <line class="st1" x1="182.06" y1="245" x2="184.87" y2="265"/>
  <line class="st1" x1="178.36" y1="247.15" x2="179.79" y2="259"/>
  <path class="st2" d="M96.2,45s1,12-6,16c0,0,4-14,6-16Z"/>
  <path class="st2" d="M67.55,187.04s11.12-1.85,10.89-3.95-3.24-8.1-4.24-8.1-6.65,12.04-6.65,12.04h0Z"/>
  <path class="st2" d="M73,171.2l-4.53,8.24s-1.69-6.04.52-8.24,4.01,0,4.01,0Z"/>
  <path class="st2" d="M69.01,162.05s1.64,1.93,1.41,4.44-2.87,3.14-2.87,3.14l1.46-7.58Z"/>
  <path class="st2" d="M67.2,388l6,29s-6-14-6-29Z"/>
  <path class="st2" d="M83.2,396l-3,20s1.77-4,2.38-6,.62-14,.62-14Z"/>
  <path class="st2" d="M52.58,155.15s-4.56,5.1-4.97,5.97,3.59,7.87,3.59,6.87.76-2.75,1.38-6.37,0-6.47,0-6.47Z"/>
  <path class="st2" d="M35.51,150s2.69,9,3.69,11,2,7.87,0,9.93-1.81-.26-2.9-5.1-2.35-9.53-2.22-10.68,1.44-5.15,1.44-5.15h0Z"/>
  <path class="st2" d="M33.2,159s2,14,3,18-9,43-9,43c0,0,3-19,3-25s2-18,1-24,2-12,2-12Z"/>
  <path class="st2" d="M29.2,177l-4,42s-1-3-1-6,2-29,5-36Z"/>
  <path class="st2" d="M31.2,222c-2.12,2.12,8.31-39,9.15-45,.85-6,2.85-9,3.85-9s5,2,5,6-15,45-18,48Z"/>
  <path id="hamstrings_left_biceps_femoris" class="st2" d="M66.25,307c-1.97,4.85-2.03,12.53-2.03,20.29,4.48-4.78,9.11-15.55,9.98-17.29,1-2,3-20,3-26s2-35,1-36-8,5-9,10-1,24-2,33c-.4,3.6-.96,7.03-1.49,9.86.83,2.37,1.21,4.49.54,6.14Z"/>
  <path class="st2" d="M110.2,45s-1,12,6,16c0,0-4-14-6-16Z"/>
  <path class="st2" d="M138.85,187.04s-11.12-1.85-10.89-3.95c.23-2.1,3.24-8.1,4.24-8.1s6.65,12.04,6.65,12.04h0Z"/>
  <path class="st2" d="M133.4,171.2l4.53,8.24s1.69-6.04-.52-8.24-4.01,0-4.01,0Z"/>
  <path class="st2" d="M137.39,162.05s-1.64,1.93-1.41,4.44,2.87,3.14,2.87,3.14l-1.46-7.58h0Z"/>
  <path id="glutes_right_minimus" class="st2" d="M140.2,205.59s-18-11.59-20-13.59,11-3,14-1,6,14.59,6,14.59Z"/>
  <path class="st2" d="M139.2,388l-6,29s6-14,6-29Z"/>
  <path class="st2" d="M123.2,396l3,20s-1.77-4-2.38-6-.62-14-.62-14Z"/>
  <path class="st2" d="M153.82,155.15s4.56,5.1,4.97,5.97-3.59,7.87-3.59,6.87-.76-2.75-1.38-6.37,0-6.47,0-6.47Z"/>
  <path class="st2" d="M170.89,150s-2.69,9-3.69,11-2,7.87,0,9.93c2,2.07,1.81-.26,2.9-5.1s2.35-9.53,2.22-10.68-1.44-5.15-1.44-5.15h.01Z"/>
  <path class="st2" d="M173.2,159s-2,14-3,18,9,43,9,43c0,0-3-19-3-25s-2-18-1-24-2-12-2-12Z"/>
  <path class="st2" d="M177.2,177l4,42s1-3,1-6-2-29-5-36Z"/>
  <path class="st2" d="M175.2,222c2.12,2.12-8.31-39-9.15-45-.85-6-2.85-9-3.85-9s-5,2-5,6,15,45,18,48Z"/>
  <path id="triceps_right_long_head" class="st2" d="M160.2,155s1-19.55,0-31.28-9-20.72-9-20.72c0,0-5.68,13.03-3.84,24.52,1.84,11.48,7.84,29.48,12.84,27.48Z"/>
  <path id="triceps_left_long_head" class="st2" d="M46.2,155s-1-19.55,0-31.28,9-20.72,9-20.72c0,0,5.68,13.03,3.84,24.52s-7.84,29.48-12.84,27.48Z"/>
  <path id="quadriceps_left_vastus_lateralis_posterior" class="st2" d="M61.84,280.14c1.64,6.14,2.36,15.86,2.36,15.86,0,0,2-36,1-39s-3-11-3-16c0-3-1.44-6.72-2.59-9.21-.17,1.18-.33,2.41-.47,3.71-.95,8.88-.13,16.45-.02,23.12.44,1.19.83,2.35,1.08,3.38,1,4,0,12,1.64,18.14Z"/>
  <path id="calves_left_gastrocnemius_lateral" class="st2" d="M73.7,373.91c.5-5.09,1.5-19.91,1.5-29.91s-3-20-3-20c-2.84,1.22-5.84,4.74-8.41,8.69-1.01,6.06-3.43,12.14-2.62,23.31.31,4.25,1.09,9.88,2.05,15.89,1.64,6.2,2.98,11.11,2.98,11.11,0,0,7-4,7.5-9.09Z"/>
  <path id="triceps_left_lateral_head" class="st2" d="M42.74,115.76h0c.08,1.38.14,2.24.14,2.24-7.11,10-5.08,27-5.08,27l2.41,5s2-4,2-9,3-24,5-28-3.93.52-4.46,2.76h-.01Z"/>
  <path id="posterior_deltoid_left" class="st2" d="M68.35,79.78c-3.7-1.78-8.15-2.67-12.41-3.07-4.7,3.27-14.08,13.79-14.08,19.29,0,3.21.29,9.26.56,14.21,3.07-2.48,8.38-6.81,9.78-8.21,2-2,2-7,4-12s13.2-9.71,12.15-10.22Z"/>
  <path id="trapezius_left" class="st2" d="M93.23,62.63c-.82,1-3.24,2.16-6.31,3.31-4.36,4.91-14.56,7.06-14.56,7.06,0,0-1.7.15-4.01.46,2.85,1.97,7.79,5.47,9.86,7.54,3,3,4,10,4,17s6,18,8,20.6,7,9.4,7,12.4,5,12,5,12l-1-101s-5,17-7.98,20.63Z"/>
  <path id="infraspinatus_right" class="st2" d="M123.2,110s4-9,4-14,2-13,8-14,11.07,7,9.53,10.5-10.53,16.5-21.53,17.5Z"/>
  <path id="teres_minor_right" class="st2" d="M145.88,93.75l-8.35,11c1.1,2.04,15.95-6.1,8.35-11Z"/>
  <path id="teres_major_right" class="st2" d="M127.2,111s9,4,16,2,4.16-11.75,4.16-11.75c0,0-10.16,8.75-20.16,9.75Z"/>
  <path id="lats_right" class="st2" d="M122.2,111.56s10,5.44,14,5.44,9.58-2.72,9.58-2.72c0,0-.55,9.72-1.57,12.72s-8.01,29-9.01,34-8,21-11,19-1-15-5-23-8-13-9-20,12-25.88,12-25.44Z"/>
  <path id="lower_back_right" class="st2" d="M105.2,200c0-2,1-39.26,0-44.63s-1-10.29,0-10.33,8,3.96,12,13.96,2,17,2,19,4,3,4,6-5,2-9,6-9,11-9,10Z"/>
  <path id="glutes_left_minimus" class="st2" d="M66.2,205.59s18-11.59,20-13.59-11-3-14-1-6,14.59-6,14.59Z"/>
  <path id="glutes_left_maximus" class="st2" d="M66.2,209.78c0,.22-1.4,20.92,2.8,27.07s10.2,10.15,18.2,9.15,13.5-5.52,14.75-8.76.25-27.24-.75-31.24-12-13-12-13c0,0-4,4-8,6s-15,9.55-15,10.78Z"/>
  <path id="hamstrings_left_semitendinosus" class="st2" d="M81.2,326s-5-10-4-21,6-54,6-55,6,11,7,17-2,20-4,28-4.69,24-3.35,31-1.65,0-1.65,0Z"/>
  <path id="hamstrings_left_semimembranosus" class="st2" d="M86.2,334c-1.79.89-3-11-1-23s5-22,6-27,1-8,1-8v17.21c0,4.79-2.6,18.42-1.8,22.1s-2.2,17.68-4.2,18.68h0Z"/>
  <path id="adductors_left_posterior" class="st2" d="M94.2,284c-1.41-2.83,0-14-1-18s-7-13-7-15,4.57-3.22,5.28-3.11,9.15-1.74,9.15-1.74c0,0,1.44,2.85,0,8.85s-3.44,14-3.44,18-2,13-3,11h.01Z"/>
  <path id="calves_left_gastrocnemius_medial" class="st2" d="M77.62,329.11s.42,7.17,0,10.53.31,29-.55,35.18,5.13,11.18,6.13,11.18,4.97-7.63,4.98-14.32c.02-6.68-1.98-26.68-1.98-29.68s-6.16-14.78-8.58-12.89h0Z"/>
  <path id="infraspinatus_left" class="st2" d="M83.2,110s-4-9-4-14-2-13-8-14-11.07,7-9.53,10.5,10.53,16.5,21.53,17.5Z"/>
  <path id="teres_minor_left" class="st2" d="M60.27,93.46l8.35,11.8c-1.98,1.09-15.65-6.61-8.35-11.8Z"/>
  <path id="teres_major_left" class="st2" d="M79.2,111s-9,4-16,2-4.7-11.75-4.7-11.75c0,0,10.7,8.75,20.7,9.75Z"/>
  <path id="lats_left" class="st2" d="M84.2,111.56s-10,5.44-14,5.44-9.58-2.72-9.58-2.72c0,0,.55,9.72,1.57,12.72s8.01,29,9.01,34,8,21,11,19,1-15,5-23,8-13,9-20-12-25.88-12-25.44Z"/>
  <path id="lower_back_left" class="st2" d="M101.2,200c0-2-1-39.26,0-44.63s1-10.29,0-10.33-8,3.96-12,13.96-2,17-2,19-4,3-4,6,5,2,9,6,9,11,9,10Z"/>
  <path id="glutes_right_maximus" class="st2" d="M140.2,209.78c0,.22,1.4,20.92-2.8,27.07s-10.2,10.15-18.2,9.15-13.5-5.52-14.75-8.76-.25-27.24.75-31.24,12-13,12-13c0,0,4,4,8,6s15,9.55,15,10.78Z"/>
  <path id="hamstrings_right_semitendinosus" class="st2" d="M125.2,326s5-10,4-21-6-54-6-55-6,11-7,17,2,20,4,28,4.69,24,3.35,31,1.65,0,1.65,0Z"/>
  <path id="hamstrings_right_semimembranosus" class="st2" d="M120.2,334c1.79.89,3-11,1-23s-5-22-6-27-1-8-1-8v17.21c0,4.78,2.6,18.42-1.8,22.1s2.2,17.68,4.2,18.68h3.6Z"/>
  <path id="adductors_right_posterior" class="st2" d="M112.2,284c1.41-2.83,0-14,1-18s7-13,7-15-4.57-3.22-5.28-3.11-9.15-1.74-9.15-1.74c0,0-1.44,2.85,0,8.85s3.44,14,3.44,18,2,13,3,11h-.01Z"/>
  <path id="calves_right_gastrocnemius_medial" class="st2" d="M128.78,329.11s-.42,7.17,0,10.53-.31,29,.55,35.18c.87,6.18-5.13,11.18-6.13,11.18s-4.97-7.63-4.98-14.32c-.02-6.68,1.98-26.68,1.98-29.68s6.16-14.78,8.58-12.89h0Z"/>
  <path id="triceps_right_lateral_head" class="st2" d="M163.66,115.76h0c-.08,1.38-.14,2.24-.14,2.24,7.11,10,5.08,27,5.08,27l-2.41,5s-2-4-2-9-3-24-5-28,3.93.52,4.46,2.76h0Z"/>
  <path id="posterior_deltoid_right" class="st2" d="M138.05,79.78c3.7-1.78,8.15-2.67,12.41-3.07,4.7,3.27,14.08,13.79,14.08,19.29,0,3.21-.29,9.26-.56,14.21-3.07-2.48-8.38-6.81-9.78-8.21-2-2-2-7-4-12s-13.2-9.71-12.15-10.22h0Z"/>
  <path id="trapezius_right" class="st2" d="M113.18,62.63c.82,1,3.24,2.16,6.31,3.31,4.36,4.91,14.56,7.06,14.56,7.06,0,0,1.7.15,4.01.46-2.85,1.97-7.79,5.47-9.86,7.54-3,3-4,10-4,17s-6,18-8,20.6-7,9.4-7,12.4-5,12-5,12l1-101s5,17,7.98,20.63Z"/>
  <path class="st2" d="M144.56,280.14c-1.64,6.14-2.36,15.86-2.36,15.86,0,0-2-36-1-39s3-11,3-16c0-3,1.44-6.72,2.59-9.21.17,1.18.33,2.41.47,3.71.95,8.88.13,16.45.02,23.12-.44,1.19-.83,2.35-1.08,3.38-1,4,0,12-1.64,18.14Z"/>
  <path id="hamstrings_right_biceps_femoris" class="st2" d="M140.15,307c1.97,4.85,2.03,12.53,2.03,20.29-4.48-4.78-9.11-15.55-9.98-17.29-1-2-3-20-3-26s-2-35-1-36,8,5,9,10,1,24,2,33c.4,3.6.96,7.03,1.49,9.86-.83,2.37-1.21,4.49-.54,6.14h0Z"/>
  <path id="calves_right_gastrocnemius_lateral" class="st2" d="M132.7,373.91c-.5-5.09-1.5-19.91-1.5-29.91s3-20,3-20c2.84,1.22,5.84,4.74,8.41,8.69,1.01,6.06,3.43,12.14,2.62,23.31-.31,4.25-1.09,9.88-2.05,15.89-1.64,6.2-2.98,11.11-2.98,11.11,0,0-7-4-7.5-9.09Z"/>
</svg>